<?xml version="1.0" encoding="iso-8859-1"?>
<!-- Generator: Adobe Illustrator 19.0.0, SVG Export Plug-In . SVG Version: 6.00 Build 0)  -->
<svg version="1.1" id="Capa_1" xmlns="http://www.w3.org/2000/svg" xmlns:xlink="http://www.w3.org/1999/xlink" x="0px" y="0px"
	 viewBox="0 0 512 512" style="enable-background:new 0 0 512 512;" xml:space="preserve">
<g>
	<path style="fill:#FFCB5A;" d="M281.318,162.048l2.611-14.805l8.781-2.509l-4.693-16.401L168.55,162.466
		c-4.13,1.186-6.733,5.248-6.084,9.498l16.41,106.667l-14.012,14.012l12.066,12.066l17.067-17.067
		c1.391-1.399,2.253-3.226,2.441-5.188l0,0l7.962-79.65l77.884-23.33l2.133-0.683l-3.908-12.194L281.318,162.048z"/>
	<path style="fill:#FFCB5A;" d="M245.581,352.546l5.359-6.69l-28.843-21.589l-0.512-0.341l-4.608,7.168l-6.827-5.12l-8.875,13.943
		L87.91,307.533c-3.302-0.947-6.852,0.188-9.003,2.867l-34.133,42.667l13.329,10.667l17.715-22.187l-2.202-0.93l3.413-7.817
		l4.267,1.877l-5.521,6.903L210.15,400.35c3.533,1.553,7.671,0.529,10.086-2.483l32.171-40.209L245.581,352.546z"/>
	<polygon style="fill:#FFCB5A;" points="80.452,324.983 73.609,340.617 75.81,341.581 86.852,327.782 	"/>
</g>
<path d="M252.399,357.658l1.314-1.638L252.399,357.658z"/>
<polygon points="219.196,311.424 210.133,325.965 210.133,325.965 219.324,311.518 "/>
<polygon style="fill:#00448F;" points="309.248,259.268 306.313,262.938 264.764,256 260.045,263.424 250.94,261.828 
	219.324,311.518 210.133,325.965 223.821,336.23 238.737,347.409 252.399,357.658 253.713,356.019 321.143,271.761 322.679,269.798 
	"/>
<g>
	<polygon style="fill:#FFCB5A;" points="401.519,505.421 418.142,501.513 416.589,494.933 399.053,494.933 	"/>
	<path style="fill:#FFCB5A;" d="M416.589,494.933L416.589,494.933l-32.58-138.487c-0.239-0.99-0.649-1.929-1.212-2.782
		L370.21,334.78l-6.827,5.12l-4.753-7.1l-31.403,23.552l5.12,6.827l-6.827,5.12l8.388,11.179l42.223,126.686
		c1.161,3.49,4.42,5.837,8.098,5.837h51.2v-17.067H416.589z"/>
</g>
<polygon style="fill:#00448F;" points="360.73,320.563 314.522,251.247 300.339,260.753 308.83,273.485 285.158,303.019 
	287.676,305.041 283.537,312.32 315.281,354.645 325.521,368.299 339.166,358.059 356.531,345.037 370.21,334.78 "/>
<path style="fill:#FFCB5A;" d="M341.564,51.2v-8.533h-51.2V51.2h-8.533v8.533c0,18.85,15.283,34.133,34.133,34.133
	s34.133-15.283,34.133-34.133V51.2H341.564z"/>
<path style="fill:#454545;" d="M341.564,0h-25.6c-18.85,0-34.133,15.283-34.133,34.133V51.2h68.267V8.533
	C350.097,3.823,346.274,0,341.564,0z"/>
<g>
	<rect x="145.314" y="17.067" style="fill:#5B5B5B;" width="68.267" height="17.067"/>
	<rect x="111.181" y="17.067" style="fill:#5B5B5B;" width="17.067" height="17.067"/>
	<rect x="264.781" y="426.667" style="fill:#5B5B5B;" width="68.267" height="17.067"/>
	<rect x="230.647" y="426.667" style="fill:#5B5B5B;" width="17.067" height="17.067"/>
	<rect x="59.981" y="136.533" style="fill:#5B5B5B;" width="34.133" height="17.067"/>
	<rect x="25.847" y="136.533" style="fill:#5B5B5B;" width="17.067" height="17.067"/>
	<rect x="128.247" y="247.467" style="fill:#5B5B5B;" width="25.6" height="17.067"/>
	<rect x="409.847" y="119.467" style="fill:#5B5B5B;" width="34.133" height="17.067"/>
</g>
<path style="fill:#62BEFF;" d="M331.273,218.615l1.758-5.282l2.304-2.56l-53.504-48.64l-0.512-0.085l-1.621,9.301v0.222
	l-7.509-6.878l-14.362,81.493l-6.886,15.642l18.202,3.183l45.457,7.945c0.452,0.077,0.905,0.111,1.365,0.111
	c3.678,0,6.938-2.347,8.098-5.837l14.089-42.342L331.273,218.615z"/>
<polygon points="272.188,164.651 272.188,164.651 272.188,164.642 "/>
<path style="fill:#FFCB5A;" d="M469.999,142.37l-7.262,21.683l-84.233,30.635l-29.013-36.267l-8.098-40.661
	c-0.674-3.371-3.311-6.007-6.682-6.69l-25.523-5.12c-13.935-2.756-27.469,6.298-30.225,20.233c-0.026,0.137-0.051,0.273-0.077,0.41
	l-6.699,38.025l0,0l14.925,13.815l37.257,33.869l13.781,12.587l31.778,28.894c3.132,2.842,7.868,2.97,11.145,0.29l93.867-76.8
	c1.212-1.041,2.099-2.406,2.56-3.942h0.119l8.533-25.6L469.999,142.37z"/>
<g>
</g>
<g>
</g>
<g>
</g>
<g>
</g>
<g>
</g>
<g>
</g>
<g>
</g>
<g>
</g>
<g>
</g>
<g>
</g>
<g>
</g>
<g>
</g>
<g>
</g>
<g>
</g>
<g>
</g>
</svg>
